<?xml version="1.0" encoding="utf-8"?>
<!-- Generator: Adobe Illustrator 22.1.0, SVG Export Plug-In . SVG Version: 6.00 Build 0)  -->
<svg version="1.1" id="Шар_1" xmlns="http://www.w3.org/2000/svg" xmlns:xlink="http://www.w3.org/1999/xlink" x="0px" y="0px"
	 viewBox="0 0 66 70" style="enable-background:new 0 0 66 70;" xml:space="preserve">
<style type="text/css">
	.st0{fill:#212121;}
</style>
<path class="st0" d="M65.3,48.4L46.8,29.7l2-10.1c0.5,0.2,1.1,0.3,1.7,0.3l0,0c2.6,0,4.7-2.1,4.8-4.7c0-2.6-2.1-4.7-4.7-4.8
	c-2.6,0-4.7,2.1-4.8,4.7c0,0.6,0.1,1.1,0.3,1.6L35.3,18L17.5,0.3C17.3,0.1,17,0,16.7,0c-0.3,0-0.6,0.1-0.8,0.3l-3.3,3.3
	c-0.5,0.5-0.5,1.2,0,1.6L14.4,7c-6.9,12.8-4.7,28.5,5.5,38.8c0.1,0.1,0.2,0.2,0.3,0.2c-0.1,0.4-0.1,0.8-0.1,1.2v13.5h-14
	c-3.2,0-5.8,2.6-5.8,5.8v2.3c0,0.6,0.5,1.2,1.2,1.2h53.8c0.6,0,1.2-0.5,1.2-1.2v-2.3c0-3.2-2.6-5.8-5.8-5.8h-14v-6
	c2.2,0.5,4.4,0.7,6.7,0.7c5.4,0,10.7-1.3,15.4-3.9l1.8,1.8c0.2,0.2,0.5,0.3,0.8,0.3c0.3,0,0.6-0.1,0.8-0.3l3.3-3.3
	C65.8,49.6,65.8,48.9,65.3,48.4z M48.9,13.6c0.9-0.9,2.4-0.9,3.3,0c0.9,0.9,0.9,2.4,0,3.3c-0.4,0.4-1,0.7-1.6,0.7l0,0
	c-1.3,0-2.3-1.1-2.3-2.3C48.2,14.7,48.5,14.1,48.9,13.6L48.9,13.6z M46.2,21.3l-1.3,6.4l-2.6-2.6L46.2,21.3z M44.9,19.3l-4.2,4.2
	l-3.2-3.3L44.9,19.3z M50.5,63.1c1.9,0,3.5,1.6,3.5,3.5v1.2H2.6v-1.2c0-1.9,1.6-3.5,3.5-3.5H50.5z M34.1,58.4v2.3H22.4v-2.3H34.1z
	 M22.4,56.1v-8.9c0-2.8,2.6-5.1,5.8-5.1s5.8,2.3,5.8,5.1v8.9H22.4z M36.5,52.4v-5.2c0-4.1-3.7-7.5-8.2-7.5c-2.9,0-5.6,1.4-7.2,3.9
	c-8.9-9.3-10.9-23.3-5-34.8l40.8,41C50.6,53,43.4,53.9,36.5,52.4z M61.2,50.9l-1.6-1.7L16.7,6.1L15,4.4l1.7-1.6l17.4,17.5l0,0
	l28.7,28.9L61.2,50.9z"/>
</svg>
